<?xml version="1.0" encoding="UTF-8" standalone="no"?>
<!-- Created with Inkscape (http://www.inkscape.org/) -->

<svg
   xmlns:dc="http://purl.org/dc/elements/1.1/"
   xmlns:cc="http://creativecommons.org/ns#"
   xmlns:rdf="http://www.w3.org/1999/02/22-rdf-syntax-ns#"
   xmlns:svg="http://www.w3.org/2000/svg"
   xmlns="http://www.w3.org/2000/svg"
   xmlns:xlink="http://www.w3.org/1999/xlink"
   xmlns:sodipodi="http://sodipodi.sourceforge.net/DTD/sodipodi-0.dtd"
   xmlns:inkscape="http://www.inkscape.org/namespaces/inkscape"
   width="161.26622"
   height="251.88748"
   id="svg1871"
   sodipodi:version="0.32"
   inkscape:version="0.48.2 r9819"
   version="1.0"
   sodipodi:docname="Peace_dove new.svg">
  <defs
     id="defs1873">
    <linearGradient
       id="linearGradient3783">
      <stop
         style="stop-color:#ffffff;stop-opacity:1"
         offset="0"
         id="stop3785" />
      <stop
         style="stop-color:#e6e6e6;stop-opacity:1"
         offset="1"
         id="stop3787" />
    </linearGradient>
    <linearGradient
       id="linearGradient3783-7">
      <stop
         style="stop-color:#ffffff;stop-opacity:1"
         offset="0"
         id="stop3785-8" />
      <stop
         style="stop-color:#e6e6e6;stop-opacity:1"
         offset="1"
         id="stop3787-0" />
    </linearGradient>
    <radialGradient
       inkscape:collect="always"
       xlink:href="#linearGradient3783-7"
       id="radialGradient4323"
       gradientUnits="userSpaceOnUse"
       gradientTransform="matrix(0.56609152,-0.39426202,0.64888917,0.9316917,-905.57383,-250.95155)"
       cx="-239.83939"
       cy="167.81026"
       fx="-239.83939"
       fy="167.81026"
       r="321.03552" />
    <radialGradient
       inkscape:collect="always"
       xlink:href="#linearGradient3783-2"
       id="radialGradient3887"
       cx="-239.83939"
       cy="167.81026"
       fx="-239.83939"
       fy="167.81026"
       r="321.03552"
       gradientTransform="matrix(0.56609152,-0.39426202,0.64888917,0.9316917,-518.9586,-173.45765)"
       gradientUnits="userSpaceOnUse" />
    <linearGradient
       id="linearGradient3783-2">
      <stop
         style="stop-color:#ffffff;stop-opacity:1"
         offset="0"
         id="stop3785-0" />
      <stop
         style="stop-color:#e6e6e6;stop-opacity:1"
         offset="1"
         id="stop3787-8" />
    </linearGradient>
  </defs>
  <sodipodi:namedview
     id="base"
     pagecolor="#ffffff"
     bordercolor="#666666"
     borderopacity="1.0"
     gridtolerance="10000"
     guidetolerance="10"
     objecttolerance="10"
     inkscape:pageopacity="0.0"
     inkscape:pageshadow="2"
     inkscape:zoom="1.512334"
     inkscape:cx="48.592975"
     inkscape:cy="117.92609"
     inkscape:document-units="px"
     inkscape:current-layer="g8154"
     inkscape:window-width="1920"
     inkscape:window-height="1005"
     inkscape:window-x="-9"
     inkscape:window-y="-9"
     showguides="true"
     inkscape:guide-bbox="true"
     showgrid="false"
     inkscape:window-maximized="1"
     fit-margin-top="0"
     fit-margin-left="0"
     fit-margin-right="0"
     fit-margin-bottom="0" />
  <metadata
     id="metadata1876">
    <rdf:RDF>
      <cc:Work
         rdf:about="">
        <dc:format>image/svg+xml</dc:format>
        <dc:type
           rdf:resource="http://purl.org/dc/dcmitype/StillImage" />
        <dc:title></dc:title>
      </cc:Work>
    </rdf:RDF>
  </metadata>
  <g
     inkscape:label="Layer 1"
     inkscape:groupmode="layer"
     id="layer1"
     transform="translate(1052.936,155.60532)">
    <g
       id="g8154">
      <g
         id="g4250"
         transform="matrix(-0.4318536,-0.90194372,-0.90194372,0.4318536,-1335.8579,-714.3209)"
         inkscape:export-filename="C:\Users\Jeff Simonsen\Pictures\path4325-8.png"
         inkscape:export-xdpi="90"
         inkscape:export-ydpi="90">
        <path
           sodipodi:nodetypes="cscscsc"
           inkscape:connector-curvature="0"
           id="path3891"
           d="m -848.53694,84.206036 c 0,0 -0.54949,11.832217 -4.2487,8.180089 -3.69922,-3.652142 -1.65028,-3.212092 -1.65028,-3.212092 0,0 7.82218,-46.380756 24.96782,-88.1612655 17.14563,-41.7805015 83.84992,-89.0242635 83.84992,-89.0242635 0,0 -54.69981,42.54788 -72.69842,75.572203 -17.99862,33.024323 -30.22034,96.645329 -30.22034,96.645329 z"
           style="fill:#ffffff;fill-opacity:1;stroke:none" />
        <path
           sodipodi:nodetypes="cscscssc"
           inkscape:connector-curvature="0"
           id="path3920"
           d="m -682.31162,-131.04471 c 0,0 -16.29043,13.15316 -26.26976,18.65751 -9.97933,5.50434 -21.83643,10.60586 -21.83643,10.60586 0,0 -10.74916,9.626196 -14.56662,14.380357 -3.81746,4.754161 -5.54125,3.526971 -5.54125,3.526971 0,0 5.75593,-6.86464 10.04125,-11.06416 22.90947,-22.450708 24.21262,-22.456958 32.16022,-27.539748 7.9476,-5.0828 26.01259,-8.56679 26.01259,-8.56679 z"
           style="fill:#ffffff;fill-opacity:1;stroke:none" />
        <path
           sodipodi:nodetypes="cscscssc"
           inkscape:connector-curvature="0"
           id="path3920-2"
           d="m -749.68592,-133.15935 c 0,0 -7.49901,19.61874 -13.5976,30.02746 -6.09859,10.408728 -14.19262,21.869166 -14.19262,21.869166 0,0 -4.38994,13.542411 -5.16184,19.193763 -0.77191,5.651352 -3.10904,6.076326 -3.10904,6.076326 0,0 1.34283,-8.329647 2.87965,-13.956674 8.21599,-30.082221 9.43234,-30.992261 13.87726,-39.722551 4.44491,-8.73029 19.30419,-23.48749 19.30419,-23.48749 z"
           style="fill:#ffffff;fill-opacity:1;stroke:none" />
        <path
           sodipodi:nodetypes="cscscssc"
           inkscape:connector-curvature="0"
           id="path3920-6"
           d="m -709.18033,-140.12335 c 0,0 -12.56092,17.37918 -21.05846,25.82519 -8.49757,8.44599 -19.04651,17.241488 -19.04651,17.241488 0,0 -7.9904,12.283825 -10.40811,17.797247 -2.41772,5.513424 -4.57049,5.095364 -4.57049,5.095364 0,0 3.74089,-8.051422 6.81258,-13.260426 16.42137,-27.847503 17.7551,-28.336363 24.30277,-35.665293 6.54768,-7.32892 23.96822,-17.03357 23.96822,-17.03357 z"
           style="fill:#ffffff;fill-opacity:1;stroke:none" />
        <path
           sodipodi:nodetypes="cscscssc"
           inkscape:connector-curvature="0"
           id="path3920-0"
           d="m -724.6162,-57.665597 c 0,0 -18.27607,2.915008 -28.56334,6.831543 -10.28726,3.91654 -21.9984,9.770678 -21.9984,9.770678 0,0 -12.39637,1.132951 -17.27401,0.4207 -4.87765,-0.712265 -5.87967,1.782016 -5.87967,1.782016 0,0 7.24641,0.820528 12.31718,0.67089 27.1085,-0.80005 28.19833,-1.906179 36.63993,-4.44187 8.4416,-2.535691 24.75831,-15.033957 24.75831,-15.033957 z"
           style="fill:#ffffff;fill-opacity:1;stroke:none" />
        <path
           sodipodi:nodetypes="cscscssc"
           inkscape:connector-curvature="0"
           id="path3920-9"
           d="m -690.98589,-116.74441 c 0,0 -17.50686,8.85448 -26.52427,15.32546 -9.0174,6.470982 -18.76972,14.749432 -18.76972,14.749432 0,0 -12.18511,5.454227 -17.40549,6.843649 -5.22039,1.389434 -5.32175,3.400226 -5.32175,3.400226 0,0 7.66822,-2.219455 12.76796,-4.245494 27.26339,-10.831273 27.96451,-11.968441 35.61347,-16.835328 7.64896,-4.866885 19.6398,-19.237945 19.6398,-19.237945 z"
           style="fill:#ffffff;fill-opacity:1;stroke:none" />
        <path
           sodipodi:nodetypes="cscscssc"
           inkscape:connector-curvature="0"
           id="path3920-60"
           d="m -696.65981,-86.614752 c 0,0 -18.26941,2.840614 -28.56108,6.717364 -10.29165,3.876762 -22.01277,9.686907 -22.01277,9.686907 0,0 -12.38883,1.081727 -17.25937,0.348231 -4.87054,-0.73348 -5.88058,1.758852 -5.88058,1.758852 0,0 7.23671,0.851846 12.30331,0.72346 27.086,-0.686465 28.17879,-1.789011 36.62155,-4.291434 8.44277,-2.502426 24.78894,-14.94338 24.78894,-14.94338 z"
           style="fill:#ffffff;fill-opacity:1;stroke:none" />
        <path
           sodipodi:nodetypes="cscscssc"
           inkscape:connector-curvature="0"
           id="path3920-3"
           d="m -727.44373,-66.655658 c 0,0 -15.04139,1.90714 -23.33076,4.624391 -8.28938,2.717231 -17.61746,6.818527 -17.61746,6.818527 0,0 -10.26806,0.683804 -14.39841,0.116382 -4.13035,-0.567394 -4.77331,1.223347 -4.77331,1.223347 0,0 6.11772,0.671313 10.34232,0.618258 22.58486,-0.283643 23.40923,-1.070757 30.26419,-2.810661 6.85492,-1.739905 19.51343,-10.590244 19.51343,-10.590244 z"
           style="fill:#ffffff;fill-opacity:1;stroke:none" />
        <path
           sodipodi:nodetypes="cscscssc"
           inkscape:connector-curvature="0"
           id="path3920-62"
           d="m -786.47323,-111.80097 c 0,0 -3.78391,19.928259 -7.97379,31.002902 -4.18989,11.074649 -10.22291,23.594694 -10.22291,23.594694 0,0 -1.80237,13.569928 -1.4633,18.981903 0.33909,5.411973 -1.98151,6.358307 -1.98151,6.358307 0,0 -0.28865,-8.025358 0.16456,-13.595844 2.42297,-29.779959 3.49253,-30.909883 6.31681,-40.040093 2.82428,-9.13021 15.16014,-26.301869 15.16014,-26.301869 z"
           style="fill:#ffffff;fill-opacity:1;stroke:none" />
        <path
           sodipodi:nodetypes="cscscssc"
           inkscape:connector-curvature="0"
           id="path3920-45"
           d="m -845.7912,-7.2054886 c 0,0 1.90904,11.780037 1.229,18.9309696 -0.68005,7.150916 -2.53019,15.610569 -2.53019,15.610569 0,0 1.94581,7.797253 3.60431,10.600584 1.65849,2.803322 -0.0368,3.98276 -0.0368,3.98276 0,0 -2.2807,-4.219047 -3.31858,-7.336815 -5.5485,-16.667688 -4.94353,-17.583238 -4.90836,-23.29619 0.0352,-5.7129388 5.96057,-18.4918776 5.96057,-18.4918776 z"
           style="fill:#ffffff;fill-opacity:1;stroke:none" />
        <path
           sodipodi:nodetypes="cscscssc"
           inkscape:connector-curvature="0"
           id="path3920-8"
           d="m -742.81726,-64.323924 c 0,0 -17.78388,9.417857 -27.06398,16.671071 -9.28008,7.253204 -19.39691,16.70736 -19.39691,16.70736 0,0 -12.3334,5.663823 -17.5578,6.899057 -5.22441,1.23522 -5.45048,3.754004 -5.45048,3.754004 0,0 7.68535,-2.03893 12.83103,-4.086571 27.509,-10.946788 28.27036,-12.308094 36.10306,-17.678266 7.83271,-5.370165 20.53508,-22.266655 20.53508,-22.266655 z"
           style="fill:#ffffff;fill-opacity:1;stroke:none" />
        <path
           sodipodi:nodetypes="cscscssc"
           inkscape:connector-curvature="0"
           id="path3920-81"
           d="m -818.17659,-90.560722 c 0,0 1.32676,18.967491 -0.0836,30.15322 -1.41034,11.18572 -4.33869,24.231982 -4.33869,24.231982 0,0 1.70019,12.676418 3.46689,17.405117 1.76667,4.728668 -0.37339,6.291033 -0.37339,6.291033 0,0 -2.39942,-7.078304 -3.39232,-12.193408 -5.30807,-27.345503 -4.50348,-28.685221 -3.989,-37.71231 0.51447,-9.027105 8.71009,-28.175634 8.71009,-28.175634 z"
           style="fill:#ffffff;fill-opacity:1;stroke:none" />
        <path
           sodipodi:nodetypes="cscscssc"
           inkscape:connector-curvature="0"
           id="path3920-4"
           d="m -838.05405,-62.828062 c 0,0 2.74822,18.43116 2.1408,29.491549 -0.60741,11.060388 -2.61995,24.0722165 -2.61995,24.0722165 0,0 2.66328,12.2471429 4.80746,16.7170669 2.14418,4.4699296 0.0849,6.1839786 0.0849,6.1839786 0,0 -2.96055,-6.7123205 -4.34701,-11.6274798 -7.41209,-26.2766392 -6.69339,-27.6566722 -6.83695,-36.5283002 -0.14356,-8.871648 6.7707,-28.309031 6.7707,-28.309031 z"
           style="fill:#ffffff;fill-opacity:1;stroke:none" />
        <path
           sodipodi:nodetypes="cscscssc"
           inkscape:connector-curvature="0"
           id="path3920-8-9"
           d="m -779.43182,-66.248099 c 0,0 -12.83563,17.172893 -18.38254,27.834465 -5.54691,10.661565 -10.83258,23.409111 -10.83258,23.409111 0,0 -9.32872,11.2788957 -13.85323,15.21038786 -4.52451,3.93149794 -3.50692,5.89397774 -3.50692,5.89397774 0,0 6.54657,-5.94471259 10.59389,-10.4211397 21.63708,-23.9311759 21.71506,-25.3629449 26.76683,-33.8151059 5.05177,-8.452153 9.21455,-28.111696 9.21455,-28.111696 z"
           style="fill:#ffffff;fill-opacity:1;stroke:none" />
        <path
           sodipodi:nodetypes="cscscssc"
           inkscape:connector-curvature="0"
           id="path3920-8-8"
           d="m -782.54658,12.443557 c 0,0 -13.19333,2.526902 -20.28603,5.48461 -7.0927,2.957709 -14.96254,7.266308 -14.96254,7.266308 0,0 -9.07259,1.144355 -12.81216,0.813336 -3.73956,-0.331022 -4.12073,1.382508 -4.12073,1.382508 0,0 5.52082,0.331456 9.27799,0.07506 20.0859,-1.370735 20.73598,-2.15041 26.65557,-4.119926 5.91958,-1.969523 16.2479,-10.901892 16.2479,-10.901892 z"
           style="fill:#ffffff;fill-opacity:1;stroke:none" />
        <path
           sodipodi:nodetypes="cscscssc"
           inkscape:connector-curvature="0"
           id="path3920-8-2"
           d="m -795.63234,40.798537 c 0,0 -12.42091,3.551114 -19.228,7.030791 -6.80708,3.479676 -14.44326,8.349038 -14.44326,8.349038 0,0 -8.49332,1.859319 -11.92905,1.837371 -3.43575,-0.02195 -3.92758,1.69177 -3.92758,1.69177 0,0 5.08502,-0.122013 8.58466,-0.678386 18.7092,-2.97441 19.37433,-3.79282 25.0151,-6.206911 5.64075,-2.414108 15.92813,-12.023673 15.92813,-12.023673 z"
           style="fill:#ffffff;fill-opacity:1;stroke:none" />
        <path
           sodipodi:nodetypes="cscscssc"
           inkscape:connector-curvature="0"
           id="path3920-45-4"
           d="m -847.80109,18.407415 c 0,0 0.66703,11.915057 -0.75689,18.955698 -1.42393,7.040647 -4.14834,15.260515 -4.14834,15.260515 0,0 1.11998,7.957951 2.47631,10.919315 1.35633,2.961339 -0.45292,3.957087 -0.45292,3.957087 0,0 -1.82713,-4.434358 -2.53337,-7.643546 -3.77554,-17.156425 -3.07818,-18.003715 -2.44593,-23.681681 0.63222,-5.677966 7.86114,-17.767388 7.86114,-17.767388 z"
           style="fill:#ffffff;fill-opacity:1;stroke:none" />
      </g>
    </g>
  </g>
</svg>
